<svg xmlns="http://www.w3.org/2000/svg" viewBox="0 0 282.5 298"><g id="Layer_2" data-name="Layer 2"><g id="Layer_1-2" data-name="Layer 1"><polygon points="272.12 160 272.12 155.83 261.75 155.83 261.75 151.67 251.37 151.67 251.37 147.5 241 147.5 241 143.33 230.62 143.33 230.62 139.17 220.25 139.17 220.25 135 209.87 135 209.87 130.83 199.5 130.83 199.5 126.67 189.12 126.67 189.12 122.5 178.75 122.5 178.75 118.33 168.38 118.33 168.38 114.17 158 114.17 158 110 158 6 147 6 147 0 146.5 0 136 0 135.5 0 135.5 6 124.5 6 124.5 110 124.5 114.17 114.12 114.17 114.12 118.33 103.75 118.33 103.75 122.5 93.37 122.5 93.37 126.67 83 126.67 83 130.83 72.62 130.83 72.62 135 62.25 135 62.25 139.17 51.87 139.17 51.87 143.33 41.5 143.33 41.5 147.5 31.12 147.5 31.12 151.67 20.75 151.67 20.75 155.83 10.38 155.83 10.38 160 0 160 0 168 0 171 0 175 0 179 0 186 11 186 11 184.08 21.38 184.08 21.38 182.17 31.75 182.17 31.75 180.25 42.12 180.25 42.12 178.33 52.5 178.33 52.5 176.42 62.87 176.42 62.87 174.5 73.25 174.5 73.25 172.58 83.62 172.58 83.62 170.67 94 170.67 94 168.75 104.37 168.75 104.37 166.83 114.75 166.83 114.75 164.92 124.5 164.92 124.5 246 124.5 252.5 113.87 252.5 113.87 259 103.25 259 103.25 265.5 92.62 265.5 92.62 272 82 272 82 280 82 283 82 287 82 291 82 298 93 298 93 295 103.7 295 103.7 292 114.4 292 114.4 289 125.1 289 125.1 286 135.8 286 135.8 283 136 283 146.5 283 146.7 283 146.7 286 157.4 286 157.4 289 168.1 289 168.1 292 178.8 292 178.8 295 189.5 295 189.5 298 200.5 298 200.5 291 200.5 287 200.5 283 200.5 280 200.5 272 189.87 272 189.87 265.5 179.25 265.5 179.25 259 168.62 259 168.62 252.5 158 252.5 158 246 158 164.92 167.75 164.92 167.75 166.83 178.12 166.83 178.12 168.75 188.5 168.75 188.5 170.67 198.87 170.67 198.87 172.58 209.25 172.58 209.25 174.5 219.62 174.5 219.62 176.42 230 176.42 230 178.33 240.37 178.33 240.37 180.25 250.75 180.25 250.75 182.17 261.12 182.17 261.12 184.08 271.5 184.08 271.5 186 282.5 186 282.5 179 282.5 175 282.5 171 282.5 168 282.5 160 272.12 160"/></g></g></svg>